<svg width="609" height="609" viewBox="0 0 609 609" fill="none" xmlns="http://www.w3.org/2000/svg">
  <path d="M304.5 304.5H609V243.6C609 182.7 559.3 133 498.4 133H437.5V304.5H304.5V171.5H476C536.9 171.5 586.6 121.8 586.6 60.9V0H304.5V304.5Z" fill="hsl(263.4, 70%, 50.4%)" fill-opacity="0.1"/>
  <path d="M304.5 304.5V0H243.6C182.7 0 133 49.7 133 110.6V171.5H304.5V304.5H171.5V133C171.5 72.1 121.8 22.4 60.9 22.4H0V304.5H304.5Z" fill="hsl(263.4, 70%, 50.4%)" fill-opacity="0.1"/>
  <path d="M304.5 304.5H0V365.4C0 426.3 49.7 476 110.6 476H171.5V304.5H304.5V437.5H133C72.1 437.5 22.4 487.2 22.4 548.1V609H304.5V304.5Z" fill="hsl(263.4, 70%, 50.4%)" fill-opacity="0.1"/>
  <path d="M304.5 304.5V609H365.4C426.3 609 476 559.3 476 498.4V437.5H304.5V304.5H437.5V476C437.5 536.9 487.2 586.6 548.1 586.6H609V304.5H304.5Z" fill="hsl(263.4, 70%, 50.4%)" fill-opacity="0.1"/>
  <path d="M304.5 304.5H609V243.6C609 182.7 559.3 133 498.4 133H437.5V304.5H304.5V171.5H476C536.9 171.5 586.6 121.8 586.6 60.9V0H304.5V304.5Z" stroke="hsl(263.4, 70%, 50.4%)" stroke-opacity="0.5"/>
  <path d="M304.5 304.5V0H243.6C182.7 0 133 49.7 133 110.6V171.5H304.5V304.5H171.5V133C171.5 72.1 121.8 22.4 60.9 22.4H0V304.5H304.5Z" stroke="hsl(263.4, 70%, 50.4%)" stroke-opacity="0.5"/>
  <path d="M304.5 304.5H0V365.4C0 426.3 49.7 476 110.6 476H171.5V304.5H304.5V437.5H133C72.1 437.5 22.4 487.2 22.4 548.1V609H304.5V304.5Z" stroke="hsl(263.4, 70%, 50.4%)" stroke-opacity="0.5"/>
  <path d="M304.5 304.5V609H365.4C426.3 609 476 559.3 476 498.4V437.5H304.5V304.5H437.5V476C437.5 536.9 487.2 586.6 548.1 586.6H609V304.5H304.5Z" stroke="hsl(263.4, 70%, 50.4%)" stroke-opacity="0.5"/>
</svg>